<svg xmlns="http://www.w3.org/2000/svg" data-name="Layer 1" viewBox="0 0 64 64"><polygon fill="#20c0e5" points="13.02 52.03 61 52.01 61 58.01 12.99 58 12.99 61 3 55.1 13.02 49 13.02 52.03"/><polygon fill="#edc48e" points="54.02 10.03 61 10.01 61 16.01 53.99 16 53.99 19 44 13.1 54.02 7 54.02 10.03"/><polygon fill="#4bad0b" points="31 3 21 8.97 31 14.94 41 8.97 31 3"/><polyline fill="#4bad0b" points="21 9.09 21 21.4 31 27 41 21.4 41 9.09"/><polyline fill="#4bad0b" points="35.96 11.98 26 6.03 31.04 3.02"/><path d="M31,15.94a1,1,0,0,1-.51-.14l-10-6a1,1,0,0,1,0-1.72l10-6a1,1,0,0,1,1,0l10,6a1,1,0,0,1,0,1.72l-10,6A1,1,0,0,1,31,15.94ZM23,9,31,13.77l8-4.8-8-4.8Z"/><path d="M31,28a1,1,0,0,1-.49-.13l-10-5.59A1,1,0,0,1,20,21.4V9.09h2V20.82l9,5,9-5V9.09h2V21.4a1,1,0,0,1-.51.88l-10,5.59A1,1,0,0,1,31,28Z"/><rect width="2" height="11.94" x="30" y="15.06"/><path d="M35.45 12.84l-10-5.95a1 1 0 0 1 0-1.72l5-3 1 1.72L28 6l8.52 5.09zM13 62a1 1 0 0 1-.51-.14L2.49 56a1 1 0 0 1 0-1.72l10-6.09a1 1 0 0 1 1 0A1 1 0 0 1 14 49v2l47 0h0a1 1 0 0 1 .71.29A1 1 0 0 1 62 52v6a1.05 1.05 0 0 1-.29.71A1 1 0 0 1 61 59H14v2a1 1 0 0 1-.51.87A1 1 0 0 1 13 62zm-8-6.92L12 59.25V58a1 1 0 0 1 1-1H60V53L13 53h0a1 1 0 0 1-.71-.3A1 1 0 0 1 12 52V50.78zM54 20a1 1 0 0 1-.51-.14l-10-5.9a1 1 0 0 1 0-1.72l10-6.09a1 1 0 0 1 1 0A1 1 0 0 1 55 7V9h6a1 1 0 0 1 .71.29A1 1 0 0 1 62 10v6a1.05 1.05 0 0 1-.29.71A1 1 0 0 1 61 17H55v2a1 1 0 0 1-.51.87A1 1 0 0 1 54 20zm-8.05-6.92L53 17.25V16a1 1 0 0 1 .29-.71A1.05 1.05 0 0 1 54 15h6V11l-6 0a1 1 0 0 1-1-1V8.78z"/><polygon fill="#4bad0b" points="17 23.77 7 29.74 17 35.71 27 29.74 17 23.77"/><polyline fill="#4bad0b" points="7 29.86 7 42.17 17 47.77 27 42.17 27 29.86"/><polyline fill="#4bad0b" points="21.96 32.75 12 26.8 17.04 23.79"/><path d="M17,36.71a1,1,0,0,1-.51-.15l-10-6a1,1,0,0,1,0-1.71l10-6a1,1,0,0,1,1,0l10,6a1,1,0,0,1,0,1.71l-10,6A1,1,0,0,1,17,36.71Zm-8-7L17,34.54l8.05-4.8-8-4.81Z"/><path d="M17,48.77a1,1,0,0,1-.49-.13L6.51,43A1,1,0,0,1,6,42.17V29.86H8V41.59l9,5,9-5V29.86h2V42.17a1,1,0,0,1-.51.87l-10,5.6A1,1,0,0,1,17,48.77Z"/><rect width="2" height="11.94" x="16" y="35.83"/><path d="M21.45,33.61l-10-5.95a1,1,0,0,1,0-1.72l5-3,1,1.72L14,26.8l8.52,5.09Z"/><polygon fill="#4bad0b" points="45 23.77 35 29.74 45 35.71 55 29.74 45 23.77"/><polyline fill="#4bad0b" points="35 29.86 35 42.17 45 47.77 55 42.17 55 29.86"/><polyline fill="#4bad0b" points="49.96 32.75 40 26.8 45.04 23.79"/><path d="M45,36.71a1,1,0,0,1-.51-.15l-10-6a1,1,0,0,1,0-1.71l10-6a1,1,0,0,1,1,0l10,6a1,1,0,0,1,0,1.71l-10,6A1,1,0,0,1,45,36.71Zm-8-7,8,4.8,8-4.8-8-4.81Z"/><path d="M45,48.77a1,1,0,0,1-.49-.13l-10-5.6a1,1,0,0,1-.51-.87V29.86h2V41.59l9,5,9-5V29.86h2V42.17a1,1,0,0,1-.51.87l-10,5.6A1,1,0,0,1,45,48.77Z"/><rect width="2" height="11.94" x="44" y="35.83"/><path d="M49.45,33.61l-10-5.95a1,1,0,0,1,0-1.72l5-3,1,1.72L42,26.8l8.52,5.09Z"/></svg>