<?xml version="1.0" encoding="UTF-8"?>
<!DOCTYPE svg PUBLIC "-//W3C//DTD SVG 1.1//EN" "http://www.w3.org/Graphics/SVG/1.1/DTD/svg11.dtd">
<!-- Creator: CorelDRAW -->
<svg xmlns="http://www.w3.org/2000/svg" xml:space="preserve" width="7.83333in" height="7.83333in" style="shape-rendering:geometricPrecision; text-rendering:geometricPrecision; image-rendering:optimizeQuality; fill-rule:evenodd; clip-rule:evenodd"
viewBox="0 0 7.83333 7.83333"
 xmlns:xlink="http://www.w3.org/1999/xlink">
 <defs>
  <style type="text/css">
   <![CDATA[
    .fil3 {fill:#8DB999}
    .fil2 {fill:#B9F6CA}
    .fil0 {fill:#C5DD82}
    .fil1 {fill:#413B32;fill-rule:nonzero}
   ]]>
  </style>
 </defs>
 <g id="Layer_x0020_1">
  <metadata id="CorelCorpID_0Corel-Layer"/>
  <circle class="fil0" cx="3.91667" cy="3.91667" r="3.91667"/>
  <g id="_203025928">
   <path id="_203026432" class="fil1" d="M1.35863 3.28166l0.27135 -1.58636 -0.000102362 -5.11811e-005c0.00614173,-0.0359055 0.0353346,-0.0621024 0.0697992,-0.0660118l1.58614 -0.271315 -1.9685e-005 -0.000106299c0.0269921,-0.00461811 0.0531339,0.00487402 0.0708858,0.023126l3.09655 3.09655 3.93701e-006 -3.93701e-006c0.0312402,0.0312402 0.0312402,0.0818937 0,0.113134l-0.000295276 0.000287402 -1.86233 1.86232 3.93701e-006 3.93701e-006c-0.0312402,0.0312402 -0.0818937,0.0312402 -0.113134,0l-0.000287402 -0.000295276 -3.09709 -3.09709 -3.93701e-006 3.93701e-006c-0.0201339,-0.0201339 -0.0272874,-0.0483268 -0.0214685,-0.0741969zm0.419315 -1.50371l-0.255543 1.49395 3.01165 3.01165 1.74949 -1.74949 -3.01165 -3.01165 -1.49395 0.255543z"/>
   <path id="_203026696" class="fil2" d="M2.55154 2.55156c-0.106594,0.106594 -0.279409,0.106594 -0.386008,0 -0.106594,-0.106594 -0.106594,-0.279413 0,-0.386008 0.106594,-0.106591 0.279413,-0.106591 0.386008,0 0.106594,0.106598 0.106591,0.279413 0,0.386008zm-0.773602 -0.773602l-0.255543 1.49394 3.01165 3.01165 1.74949 -1.74949 -3.01165 -3.01165 -1.49395 0.255543z"/>
   <path id="_203026480" class="fil1" d="M2.10507 2.10508c0.0699843,-0.0699843 0.161728,-0.104976 0.253469,-0.104984 0.0917402,7.87402e-006 0.183484,0.035 0.253469,0.104984 0.0699882,0.0699882 0.104984,0.161736 0.104984,0.253469 -7.87402e-006,0.0917402 -0.035,0.183484 -0.104984,0.253469 -0.0699843,0.0699843 -0.161728,0.104976 -0.253469,0.104984 -0.0917323,0 -0.18348,-0.0349961 -0.253469,-0.104984 -0.0699843,-0.0699843 -0.104976,-0.161728 -0.104984,-0.253469 7.87402e-006,-0.0917402 0.035,-0.183484 0.104984,-0.253469zm0.253469 0.0660197c-0.0479606,3.93701e-006 -0.095937,0.0183071 -0.132539,0.0549094 -0.0366024,0.0366063 -0.0549055,0.0845827 -0.0549094,0.132539 3.93701e-006,0.0479606 0.0183071,0.095937 0.0549094,0.132539 0.0366024,0.0366024 0.0845827,0.0549094 0.132539,0.0549094 0.0479567,-3.93701e-006 0.0959331,-0.0183071 0.132539,-0.0549094 0.0366024,-0.0366024 0.0549055,-0.0845787 0.0549094,-0.132539 0,-0.0479567 -0.0183071,-0.0959331 -0.0549094,-0.132539 -0.0366063,-0.0366024 -0.0845827,-0.0549055 -0.132539,-0.0549094z"/>
   <path id="_203026000" class="fil3" d="M6.28354 4.53406l-3.01165 -3.01165 -1.49395 0.255543 0.327134 0.327126c0.0699843,-0.0699803 0.161728,-0.104972 0.253472,-0.10498 0.0917323,7.87402e-006 0.183484,0.035 0.253469,0.104984 0.0699803,0.0699882 0.104976,0.161736 0.10498,0.253469 -7.87402e-006,0.0917402 -0.035,0.183484 -0.10498,0.253469l0.546358 0.546358c-0.0063937,-0.0212441 -0.0100591,-0.040622 -0.0109961,-0.0581339 -0.00412205,-0.0736575 0.0188543,-0.135531 0.0689409,-0.185622 0.0322638,-0.0322559 0.0714488,-0.0531811 0.117854,-0.0630433 0.0462559,-0.00972441 0.0939882,-0.00471654 0.143043,0.014878 0.0490512,0.0198858 0.097815,0.0539134 0.146429,0.102528 0.0795472,0.0795512 0.121827,0.156598 0.12728,0.231579 0.00514961,0.0749843 -0.020185,0.142453 -0.076315,0.202701l-0.133315 -0.122122c0.0271102,-0.0380039 0.0387441,-0.0732126 0.0349134,-0.105331 -0.0036811,-0.0322559 -0.0235669,-0.0662874 -0.0595118,-0.102232 -0.037126,-0.037126 -0.0738031,-0.0587756 -0.110047,-0.064378 -0.0232756,-0.00382677 -0.0431614,0.00250394 -0.0595157,0.0188583 -0.0150276,0.0150276 -0.0215079,0.0341732 -0.0194449,0.0574528 0.00250394,0.0296102 0.0275512,0.082937 0.0751339,0.159685 0.047437,0.0769016 0.0782244,0.138035 0.0923661,0.183409 0.00814961,0.0265079 0.0122008,0.0527165 0.012126,0.0787126l0.157287 0.157287 0.316575 -0.316579 0.469043 0.469047 -0.107091 0.107094 -0.341327 -0.341327 -0.140244 0.140244 0.31761 0.31761 -0.0692402 0.0692362c0.385543,0.385543 0.713161,0.713161 1.29887,1.29887l0.874744 -0.874744z"/>
   <path id="_203025976" class="fil1" d="M2.9323 3.15298l0.136563 0.112106c-0.0344764,0.0492047 -0.0499409,0.0950157 -0.0465551,0.137591 0.00338976,0.0422795 0.0243071,0.0829409 0.0631969,0.121831 0.0410984,0.0410984 0.080878,0.0634921 0.119181,0.0667323 0.0382992,0.00353543 0.0690866,-0.00633465 0.0923622,-0.0296102 0.0150276,-0.0150276 0.0232756,-0.0321142 0.0248976,-0.0514094 0.00191339,-0.0192992 -0.00427559,-0.0437559 -0.018563,-0.0733661 -0.0095748,-0.0201811 -0.0346181,-0.0634921 -0.0745394,-0.129929 -0.0515591,-0.0854449 -0.0786654,-0.154386 -0.0814646,-0.206681 -0.00412598,-0.0736575 0.0188543,-0.135531 0.0689409,-0.185618 0.0322638,-0.0322598 0.0714488,-0.0531811 0.117854,-0.0630472 0.0462559,-0.00972441 0.0939843,-0.00471654 0.143039,0.014878 0.0490551,0.0198858 0.0978189,0.0539173 0.146429,0.102528 0.0795512,0.0795512 0.121831,0.156598 0.127283,0.231579 0.00514961,0.0749843 -0.020185,0.142453 -0.076315,0.202705l-0.133315 -0.122126c0.0271063,-0.0380039 0.0387441,-0.0732126 0.0349134,-0.105327 -0.0036811,-0.0322598 -0.0235709,-0.0662913 -0.0595157,-0.102236 -0.037122,-0.037122 -0.0738031,-0.0587756 -0.110043,-0.064378 -0.0232756,-0.00382677 -0.0431614,0.00250394 -0.0595157,0.0188583 -0.0150276,0.0150276 -0.0215079,0.0341732 -0.0194449,0.0574528 0.00250394,0.0296102 0.0275472,0.082937 0.0751339,0.159689 0.0474331,0.0768976 0.0782244,0.138031 0.0923622,0.183406 0.0139961,0.0455197 0.0159094,0.0901575 0.00559843,0.134346 -0.0104606,0.0440512 -0.0356496,0.0860354 -0.0755709,0.125957 -0.0362402,0.0362402 -0.0802835,0.060252 -0.131996,0.0715945 -0.0518543,0.0114882 -0.103854,0.00662992 -0.156004,-0.014878 -0.0522953,-0.0213622 -0.105921,-0.0596614 -0.16087,-0.11461 -0.0799882,-0.0799882 -0.123004,-0.159839 -0.128894,-0.239681 -0.0058937,-0.0798425 0.0223898,-0.159394 0.0848504,-0.238354zm0.416165 0.82776l0.632713 -0.632713 0.469043 0.469047 -0.107094 0.107094 -0.341327 -0.341327 -0.140244 0.140244 0.31761 0.31761 -0.106508 0.106508 -0.31761 -0.31761 -0.172209 0.172209 0.353406 0.353406 -0.106657 0.106657 -0.481122 -0.481126zm0.876075 0.251169c0.0645236,-0.0645236 0.128161,-0.109008 0.191213,-0.133465 0.0465512,-0.0176772 0.0951654,-0.0271063 0.145693,-0.0278386 0.0503858,-0.000590551 0.0966378,0.00765748 0.138622,0.0248898 0.0562756,0.022689 0.109898,0.059811 0.161457,0.11137 0.093248,0.093252 0.138917,0.196665 0.137004,0.310539 -0.00176772,0.113724 -0.0542126,0.22215 -0.157185,0.325118 -0.102236,0.10224 -0.209921,0.15424 -0.323209,0.156449 -0.113134,0.00206299 -0.216256,-0.0433071 -0.309063,-0.136118 -0.0941339,-0.0941339 -0.14024,-0.197693 -0.138476,-0.310535 0.00191732,-0.112988 0.0533268,-0.219791 0.153945,-0.320409zm0.135823 0.12728c-0.0715945,0.0715984 -0.109307,0.142598 -0.113283,0.212575 -0.00383071,0.070122 0.0197362,0.13052 0.0707087,0.181492 0.0508228,0.0508228 0.110929,0.0743937 0.180461,0.0702677 0.0692362,-0.00412205 0.140535,-0.0427205 0.213902,-0.116083 0.0724764,-0.0724803 0.11063,-0.142453 0.114756,-0.209921 0.00383071,-0.0674724 -0.020622,-0.127575 -0.0732165,-0.180169 -0.0527362,-0.0527362 -0.113283,-0.0770433 -0.181638,-0.0732087 -0.0682047,0.00397244 -0.138768,0.042126 -0.211689,0.115047z"/>
  </g>
 </g>
</svg>
