<?xml version="1.0" encoding="iso-8859-1"?>
<!-- Generator: Adobe Illustrator 19.0.0, SVG Export Plug-In . SVG Version: 6.00 Build 0)  -->
<svg version="1.1" id="Layer_1" xmlns="http://www.w3.org/2000/svg" xmlns:xlink="http://www.w3.org/1999/xlink" x="0px" y="0px"
	 viewBox="0 0 493.57 493.57" style="enable-background:new 0 0 493.57 493.57;" xml:space="preserve">
<g>
	<path style="fill:#3D1952;" d="M99.9,374.855v65.9c40.477,0,74.499-28.146,83.534-65.9H99.9z"/>
	<path style="fill:#6D2C93;" d="M16.356,374.855c9.036,37.754,43.059,65.9,83.544,65.9v-65.9H16.356z"/>
	<path style="fill:#6D2C93;" d="M340.813,360.115l-21.931-80.594c-26.599,14.615-44.67,42.904-44.67,75.337
		c0,47.364,38.533,85.897,85.897,85.897v-85.897L340.813,360.115z"/>
	<path style="fill:#6D2C93;" d="M360.109,268.961c-0.89,0-1.776,0.018-2.66,0.045l2.66,9.765V268.961z"/>
	<path style="fill:#3D1952;" d="M379.406,349.601l-19.297,5.257v85.897c47.364,0,85.897-38.533,85.897-85.897
		s-38.533-85.897-85.897-85.897v9.81L379.406,349.601z"/>
	<polygon style="fill:#7C84E8;" points="263.422,67.227 220.179,67.227 220.179,107.227 271.997,107.227 261.43,68.395 	"/>
	<path style="fill:#FFCD00;" d="M360.72,109.995c0-31.53-25.66-57.18-57.19-57.18c-1.65,0-3.29,0.07-4.92,0.22l29.573,108.549
		C347.411,152.363,360.72,132.704,360.72,109.995z"/>
	<path style="fill:#999FED;" d="M314.11,261.989l4.771,17.533l21.931,80.594l38.594-10.514l-19.297-70.83l-2.66-9.765l-4.785-17.565
		C339.069,252.423,325.987,256.07,314.11,261.989z"/>
	<path style="fill:#999FED;" d="M328.183,161.583L298.61,53.035c-8.45,0.72-16.67,3.32-24,7.63l-11.188,6.562l-1.992,1.168
		l10.567,38.832l31.469,115.646c12.181-5.251,25.143-8.839,38.541-10.547L328.183,161.583z"/>
	<path style="fill:#7C84E8;" d="M360.11,251.165c42.67,0,80.48,25.59,96.32,65.2l37.14-14.85c-10.55-26.36-28.51-48.85-51.96-65.02
		c-24.03-16.57-52.21-25.33-81.5-25.33c-6.099,0-12.143,0.401-18.103,1.161c-13.398,1.708-26.36,5.296-38.541,10.547
		c-27.818,11.992-51.543,32.669-66.916,59.613l-29.88,52.37h-9.75v-69.02h-81.97v109.02H229.9l41.39-72.54
		c10.047-17.611,25.092-31.493,42.82-40.326c11.877-5.918,24.958-9.566,38.553-10.547
		C355.131,251.263,357.613,251.165,360.11,251.165z"/>
	<path style="fill:#6D2C93;" d="M214.94,265.835v-40h-85.92c-36.66,0-69.79,15.37-93.3,40H214.94z"/>
	<path style="fill:#999FED;" d="M114.95,374.855v-109.02H35.72C13.6,289.005,0,320.375,0,354.855v20H114.95z"/>
</g>
<g>
</g>
<g>
</g>
<g>
</g>
<g>
</g>
<g>
</g>
<g>
</g>
<g>
</g>
<g>
</g>
<g>
</g>
<g>
</g>
<g>
</g>
<g>
</g>
<g>
</g>
<g>
</g>
<g>
</g>
</svg>
