<?xml version="1.0" encoding="iso-8859-1"?>
<!-- Generator: Adobe Illustrator 19.0.0, SVG Export Plug-In . SVG Version: 6.00 Build 0)  -->
<svg version="1.1" id="Layer_1" xmlns="http://www.w3.org/2000/svg" xmlns:xlink="http://www.w3.org/1999/xlink" x="0px" y="0px"
	 viewBox="0 0 337.947 337.947" style="enable-background:new 0 0 337.947 337.947;" xml:space="preserve">
<g id="XMLID_1250_">
	<g id="XMLID_1251_">
		<g id="XMLID_1254_">
			<path id="XMLID_1253_" style="fill:#45B7EF;" d="M215.468,28.974h-33.666c-6.386,18.063-23.605,31.009-43.856,31.009
				S100.477,47.038,94.09,28.974H60.426L0,89.038l29.417,51.225l23.256-20.217v125.987h85.274h85.274V120.047l23.256,20.217
				l29.417-51.225L215.468,28.974z"/>
		</g>
		<g id="XMLID_1257_">
			<path id="XMLID_1256_" style="fill:#2FA1DB;" d="M215.468,28.974h-33.666c-6.386,18.063-23.605,31.009-43.856,31.009v186.051
				h85.274V120.047l23.256,20.217l29.417-51.225L215.468,28.974z"/>
		</g>
	</g>
	<g id="XMLID_1258_">
		<polygon id="XMLID_1261_" style="fill:#DAE4F4;" points="137.947,87.774 71.89,87.774 71.89,187.233 137.947,187.233 
			204.004,187.233 204.004,87.774 		"/>
		<rect id="XMLID_1264_" x="137.947" y="87.774" style="fill:#C6D6EA;" width="66.057" height="99.459"/>
	</g>
	<g id="XMLID_1265_">
		<path id="XMLID_1266_" style="fill:#D572A8;" d="M125.273,159.455c-18.355,31.792-49.384-21.952-12.674-21.952
			c-36.71,0-5.681-53.744,12.674-21.952c-18.355-31.792,43.703-31.792,25.348,0c18.355-31.792,49.384,21.952,12.674,21.952
			c36.71,0,5.681,53.744-12.674,21.952C168.976,191.247,106.918,191.247,125.273,159.455z"/>
		<path id="XMLID_1267_" style="fill:#CF599B;" d="M163.295,137.504c36.71,0,5.681-53.743-12.674-21.952
			c9.178-15.896-1.748-23.844-12.674-23.844v91.591c10.926,0,21.851-7.948,12.674-23.844
			C168.976,191.247,200.005,137.504,163.295,137.504z"/>
	</g>
	<circle id="XMLID_1268_" style="fill:#FFFFFF;" cx="137.947" cy="137.504" r="14.679"/>
	<g id="XMLID_1269_">
		<polygon id="XMLID_1272_" style="fill:#DAE4F4;" points="238.322,158.974 138.698,158.974 138.698,308.974 238.322,308.974 
			337.947,308.974 337.947,158.974 		"/>
		<rect id="XMLID_1275_" x="238.322" y="158.974" style="fill:#C6D6EA;" width="99.625" height="150"/>
	</g>
	<g id="XMLID_1276_">
		<path id="XMLID_1277_" style="fill:#D572A8;" d="M219.208,267.079c-27.682,47.947-74.479-33.106-19.114-33.106
			c-55.365,0-8.568-81.054,19.114-33.106c-27.682-47.947,65.91-47.947,38.228,0c27.682-47.947,74.479,33.106,19.114,33.106
			c55.365,0,8.568,81.054-19.114,33.106C285.119,315.027,191.526,315.027,219.208,267.079z"/>
		<path id="XMLID_1278_" style="fill:#CF599B;" d="M276.551,233.974c55.365,0,8.568-81.054-19.114-33.107
			c13.841-23.974-2.636-35.96-19.114-35.96v138.134c16.478,0,32.955-11.987,19.114-35.96
			C285.119,315.027,331.915,233.974,276.551,233.974z"/>
	</g>
	<circle id="XMLID_1279_" style="fill:#FFFFFF;" cx="238.322" cy="233.974" r="22.139"/>
</g>
<g>
</g>
<g>
</g>
<g>
</g>
<g>
</g>
<g>
</g>
<g>
</g>
<g>
</g>
<g>
</g>
<g>
</g>
<g>
</g>
<g>
</g>
<g>
</g>
<g>
</g>
<g>
</g>
<g>
</g>
</svg>
