<?xml version="1.0" encoding="utf-8"?>
<!-- Generator: Adobe Illustrator 23.0.3, SVG Export Plug-In . SVG Version: 6.00 Build 0)  -->
<svg version="1.1" id="Capa_1" xmlns="http://www.w3.org/2000/svg" xmlns:xlink="http://www.w3.org/1999/xlink" x="0px" y="0px"
	 viewBox="0 0 187 187" style="enable-background:new 0 0 187 187;" xml:space="preserve">
<style type="text/css">
	.st0{fill:#4CB5AB;}
	.st1{fill:#010101;}
	.st2{fill:#3EC4FE;}
	.st3{fill:#040404;}
	.st4{fill:#020202;}
	.st5{fill:#FFD63F;}
	.st6{fill:#FF5454;}
	.st7{fill:none;stroke:#FFD63F;stroke-width:15;stroke-linecap:round;stroke-miterlimit:10;}
	.st8{fill:#030303;}
	.st9{fill:url(#SVGID_1_);}
	.st10{fill:url(#SVGID_2_);}
	.st11{fill:url(#SVGID_3_);}
	.st12{fill:url(#SVGID_4_);}
	.st13{fill:url(#SVGID_5_);}
	.st14{fill:url(#SVGID_6_);}
	.st15{fill:url(#SVGID_7_);}
	.st16{fill:url(#SVGID_8_);}
	.st17{fill:url(#SVGID_9_);}
	.st18{fill:#9469F7;}
	.st19{fill:#731A7C;}
	.st20{fill:#E83D24;}
	.st21{fill:#52B0D0;}
	.st22{fill:#DF4092;}
	.st23{fill:#2763BF;}
	.st24{fill:#50A730;}
	.st25{fill:#F7CF47;}
	.st26{fill:#ED8232;}
	.st27{fill:#BD356C;}
	.st28{fill:url(#SVGID_10_);}
	.st29{fill:url(#SVGID_11_);}
	.st30{fill:url(#SVGID_12_);}
	.st31{fill:url(#SVGID_13_);}
	.st32{fill:url(#SVGID_14_);}
	.st33{fill:url(#SVGID_15_);}
	.st34{fill:url(#SVGID_16_);}
	.st35{fill:url(#SVGID_17_);}
	.st36{fill:url(#SVGID_18_);}
</style>
<g>
	<g>
		<path class="st18" d="M146,73.8c-5.9,0-11.9,0-17.8,0h-3.6c-0.7,0-1.2,0.6-1.2,1.2v19.8c0,0.7,0.5,1.2,1.2,1.2
			c5.1,0,24.1,0.1,27.5-0.1c4.9-0.2,6.7-2.8,4.9-7.2c-1.6-4-3.5-7.8-5.4-11.7C150.3,75,148.5,73.8,146,73.8z M147.6,89.6
			c-1.2,0.1-15.7,0-17.6,0c-0.3,0-0.5-0.2-0.5-0.5v-7.4c0-0.3,0.2-0.5,0.5-0.5h5c2.2,0,8.1,0,10.3,0c0.9,0,1.6,0.4,2,1.2
			c0.7,1.4,1.4,2.9,2,4.3C150.1,88.6,149.5,89.5,147.6,89.6z"/>
		<path class="st18" d="M173.8,127.3c-0.3-10.9-0.1-21.8-0.1-32.8c0-2.7-0.4-5.3-1.6-7.8c-3.3-7-6.7-14.1-9.8-21.3
			c-1.7-3.9-4.2-5.6-8.5-5.5c-10.5,0.3-21,0-31.5,0.2c-3.1,0.1-4.4-0.6-4.2-4c0.3-5.3-0.2-10.7,0.2-16.1c0.4-6.1-2.4-7.9-8.1-7.9
			c-14.4,0.2-28.8,0.1-43.3,0.1s-28.9,0-43.3,0c-7.2,0-8.2,1-8.2,8.2c0,22.9,0,45.7,0,68.6c0,10.3,0,10.3,10.3,11.2
			c1.2,0.1,3.4-0.7,2.9,1.7c-0.3,1.3-0.2,3.6-2.6,3.5c-1,0-2.1,0.1-3.1,0c-3.5-0.1-7.2,0.1-7.3,4.6c-0.1,4.5,3.7,5,7.1,4.8
			c3.4-0.3,5,0.9,6.2,4.1c3.9,10,11.7,15.3,22.4,15.4c10.8,0.1,18.5-5.3,22.5-15.2c1.3-3.1,2.6-4.4,6.1-4.3c9.9,0.3,19.8,0.2,29.7,0
			c3.4-0.1,4.9,1,6.2,4.3c3.7,9.7,12.5,15.5,22.5,15.3c10.8-0.2,18.4-5.5,22.5-15.3c1.2-2.9,2.2-4.5,5.5-4.2
			C171.9,135.6,174,132.9,173.8,127.3z M51.2,145.4c-7.9-0.2-14.9-7.4-14.7-15.2c0.2-8.1,7-14.7,15.2-14.6c8.3,0.1,14.7,6.8,14.6,15
			C66.2,138.7,59.1,145.6,51.2,145.4z M69.3,111c-2.1,0-3.9-0.6-5.8-1.6c-8-4.5-16-4.4-24.1-0.1c-1.2,0.7-2.5,1.4-3.9,1.6
			c-10,1.5-10.6,0.9-10.6-9.1c0-17.9,0.2-35.8-0.1-53.7c-0.1-4.9,0.8-6.7,6.2-6.5c12.1,0.5,24.3,0.1,36.4,0.1
			c12.3,0,24.7,0.1,37-0.1c3.5-0.1,4.6,0.9,4.5,4.4c-0.2,20.2-0.2,40.3,0,60.5c0,3.5-1,4.5-4.5,4.5C92.7,110.8,81,110.9,69.3,111z
			 M109.6,125.9c-10.1-0.3-20.2-0.3-30.2,0c-3.7,0.1-5.2-1.3-5.1-5.3c13.7,0,27.4,0,41.5,0C115.8,124.6,113.8,126,109.6,125.9z
			 M138.5,145.4c-7.7,0.2-15-6.9-15.2-14.7c-0.2-7.9,6.6-14.9,14.7-15.1c8.2-0.2,15,6.4,15.1,14.6
			C153.3,138.2,146.5,145.3,138.5,145.4z M164.1,126.9c-14.9-23.7-28.9-27-45.9-10.8c0-15.2,0-29.7,0-44.2c0-2.6,1.7-2.3,3.4-2.3
			c9.7,0,19.4,0.1,29-0.1c2.8,0,3.6,1.6,5,3.6C166.6,89.3,164.6,107.4,164.1,126.9z"/>
	</g>
</g>
</svg>
