<?xml version="1.0" encoding="iso-8859-1"?>
<!-- Generator: Adobe Illustrator 19.0.0, SVG Export Plug-In . SVG Version: 6.00 Build 0)  -->
<svg version="1.1" id="Layer_1" xmlns="http://www.w3.org/2000/svg" xmlns:xlink="http://www.w3.org/1999/xlink" x="0px" y="0px"
	 viewBox="0 0 496 496" style="enable-background:new 0 0 496 496;" xml:space="preserve">
<g>
	<g>
		<g>
			<path d="M464,0c-17.648,0-32,14.352-32,32c0,8.048,3.08,15.32,8,20.944V56H56v-3.056C60.92,47.32,64,40.048,64,32
				C64,14.352,49.648,0,32,0S0,14.352,0,32c0,8.048,3.08,15.32,8,20.944V496h16V62.864C26.568,63.536,29.224,64,32,64
				s5.432-0.464,8-1.136V496h16V296h16v32h29.448c3.36,12.312,8.272,24.152,14.664,35.312l-20.84,20.848l56.568,56.568l20.848-20.84
				c11.168,6.392,23,11.304,35.312,14.664V464h80v-29.448c12.312-3.36,24.152-8.272,35.312-14.664l20.848,20.84l56.568-56.568
				l-20.84-20.848c6.392-11.168,11.304-23,14.664-35.312H424v-32h16v200h16V62.864c2.568,0.672,5.224,1.136,8,1.136
				s5.432-0.464,8-1.136V496h16V52.944c4.92-5.624,8-12.896,8-20.944C496,14.352,481.648,0,464,0z M32,48c-8.816,0-16-7.184-16-16
				s7.184-16,16-16s16,7.184,16,16S40.816,48,32,48z M408,312h-26.088l-1.416,6.224c-3.368,14.864-9.24,29.016-17.464,42.064
				l-3.4,5.408l18.472,18.472l-33.944,33.944l-18.472-18.472l-5.408,3.4c-13.048,8.216-27.192,14.096-42.064,17.464L272,421.912V448
				h-48v-26.088l-6.224-1.416c-14.864-3.368-29.016-9.24-42.064-17.464l-5.408-3.4l-18.472,18.472l-33.944-33.944l18.472-18.472
				l-3.4-5.408c-8.216-13.048-14.096-27.192-17.464-42.064L114.088,312H88v-16h64.408c4.088,49.2,45.352,88,95.592,88
				s91.504-38.8,95.592-88H408V312z M168.408,296H327.6c-4.032,40.368-38.184,72-79.592,72S172.432,336.368,168.408,296z M440,280
				H56V72h384V280z M464,48c-8.824,0-16-7.184-16-16s7.176-16,16-16c8.824,0,16,7.184,16,16S472.824,48,464,48z"/>
			<polygon points="144,138.424 144,120 80,120 80,136 126.384,136 80,205.576 80,232 144,232 144,216 96,216 96,210.424 			"/>
			<path d="M168,156v40c0,19.848,16.152,36,36,36c19.848,0,36-16.152,36-36v-40c0-19.848-16.152-36-36-36
				C184.152,120,168,136.152,168,156z M224,156v40c0,11.032-8.968,20-20,20s-20-8.968-20-20v-40c0-11.032,8.968-20,20-20
				S224,144.968,224,156z"/>
			<polygon points="317.336,216 277.336,120 256,120 256,232 272,232 272,148.8 306.664,232 336,232 336,120 320,120 320,216 			"/>
			<polygon points="352,232 424,232 424,216 368,216 368,184 424,184 424,168 368,168 368,136 424,136 424,120 352,120 			"/>
			<rect x="72" y="248" width="320" height="16"/>
			<rect x="408" y="248" width="16" height="16"/>
			<rect x="72" y="88" width="352" height="16"/>
		</g>
	</g>
</g>
<g>
</g>
<g>
</g>
<g>
</g>
<g>
</g>
<g>
</g>
<g>
</g>
<g>
</g>
<g>
</g>
<g>
</g>
<g>
</g>
<g>
</g>
<g>
</g>
<g>
</g>
<g>
</g>
<g>
</g>
</svg>
